# xmcd
#
# Track frame offsets: 
#        150
#        13186
#        30009
#        49882
#        66520
#        80018
#        94789
#        106362
#        123253
#        137640
#        155709
#
# Disc length: 2252 seconds
#
# Revision: 3
# Processed by: cddbd v1.5.2PL0 Copyright (c) Steve Scherf et al.
# Submitted via: ExactAudioCopy v0.95b3
#
DISCID=8f08ca0b
DTITLE=Diana Jones - Better Times Will Come
DYEAR=2009
DGENRE=Country
TTITLE0=Better Times Will Come (with Nanci Griffith)
TTITLE1=All God's Children (with Betty Elders)
TTITLE2=Henry Russell's Last Words
TTITLE3=If I Had A Gun (with Mary Gauthier)
TTITLE4=Soldier Girl (with Nanci Griffith)
TTITLE5=Cracked And Broken
TTITLE6=Ballad Of The Poor Child
TTITLE7=Appalachia
TTITLE8=Evangelina
TTITLE9=Something Crossed Over
TTITLE10=The Day I Die
EXTD=
EXTT0=
EXTT1=
EXTT2=
EXTT3=
EXTT4=
EXTT5=
EXTT6=
EXTT7=
EXTT8=
EXTT9=
EXTT10=
PLAYORDER=
